<svg width="16px" height="15px" viewBox="1235 12 16 15" version="1.1" xmlns="http://www.w3.org/2000/svg" xmlns:xlink="http://www.w3.org/1999/xlink">
    <!-- Generator: Sketch 40.1 (33804) - http://www.bohemiancoding.com/sketch -->
    <desc>Created with Sketch.</desc>
    <defs></defs>
    <path d="M1247.07382,23.60895 C1245.74582,23.24081 1244.64712,22.72873 1245.05992,21.13634 C1245.22672,20.49119 1245.65342,20.0138 1245.94402,19.41119 C1246.26422,18.74642 1246.46212,17.97542 1246.52402,17.25452 C1246.57952,16.61872 1246.51372,15.95183 1246.48422,15.33353 C1246.44922,14.61595 1246.27722,14.24901 1245.86412,13.67778 C1245.35622,12.97347 1244.30522,12.09505 1243.33382,12.00815 C1243.32292,12.00241 1243.29432,12.00302 1243.26382,12.00362 C1243.21102,12.00091 1243.19982,12.0003 1243.19142,12 C1242.18322,12.07997 1241.11802,12.96744 1240.60592,13.67808 C1240.19252,14.24961 1240.02082,14.61625 1239.98552,15.33383 C1239.95622,15.95213 1239.89042,16.61902 1239.94602,17.25482 C1240.00782,17.97573 1240.20582,18.74672 1240.52592,19.41149 C1240.81652,20.0141 1241.24322,20.49149 1241.41012,21.13665 C1241.82292,22.72903 1240.72422,23.24111 1239.39622,23.60926 C1238.23442,23.93093 1236.73072,23.95537 1236.00622,25.13706 C1235.79142,25.4868 1235.55082,26.45575 1235.94802,26.77289 C1236.29622,27.05112 1237.37052,26.99257 1237.82432,26.99257 C1238.94932,26.99257 1242.12222,26.99891 1243.23602,26.99891 C1244.55772,26.9977 1247.60132,26.99227 1248.64572,26.99227 C1249.09952,26.99227 1250.17382,27.05081 1250.52202,26.77259 C1250.91912,26.45544 1250.67832,25.4865 1250.46382,25.13676 C1249.73922,23.95507 1248.23562,23.93063 1247.07382,23.60895 Z" id="Fill-5-Copy" stroke="none" fill="#383839" fill-rule="evenodd"></path>
</svg>